<svg width="29" height="29" viewBox="0 0 29 29" fill="none" xmlns="http://www.w3.org/2000/svg">
<path d="M18.575 8.8055L23.8775 3.5H17V0.5H29V12.5H26V5.621L20.6945 10.9265C22.4253 13.1953 23.2292 16.037 22.9435 18.8762C22.6579 21.7155 21.3039 24.3401 19.1558 26.2186C17.0077 28.097 14.2261 29.089 11.3741 28.9937C8.52208 28.8983 5.8129 27.7227 3.79512 25.7049C1.77733 23.6871 0.601723 20.9779 0.506352 18.1259C0.41098 15.2739 1.40297 12.4923 3.28145 10.3442C5.15993 8.19612 7.78452 6.84215 10.6238 6.55647C13.463 6.27078 16.3047 7.07472 18.5735 8.8055H18.575ZM11.75 26C13.938 26 16.0365 25.1308 17.5836 23.5836C19.1308 22.0365 20 19.938 20 17.75C20 15.562 19.1308 13.4635 17.5836 11.9164C16.0365 10.3692 13.938 9.5 11.75 9.5C9.56198 9.5 7.46356 10.3692 5.91638 11.9164C4.36921 13.4635 3.50001 15.562 3.50001 17.75C3.50001 19.938 4.36921 22.0365 5.91638 23.5836C7.46356 25.1308 9.56198 26 11.75 26Z" fill="#1178B3"/>
</svg>
